# xmcd
#
# Track frame offsets:
#   150
#   11416
#   19903
#   26723
#   32431
#   45358
#   55091
#   62908
#   69447
#   82755
#   92774
#   100819
#   109741
#   126908
#   139821
#   150182
#   158841
#   176439
#   189675
#   200294
#   209168
#   225820
#   238347
#   248399
#
# Disc length: 3422 seconds
#
# Revision: 0
# Processed by: cddbd v1.5.2PL0 Copyright (c) Steve Scherf et al.
# Submitted via: GXTranscoder 2.0.1939
#
DISCID=2d0d5c18
DTITLE=Charlie Parker - Charlie Parker Omnibook Blues Solos 1
DYEAR=1900
DGENRE=Blues
TTITLE0=Au Privave No. 1, 1/2
TTITLE1=Au Privave No. 1, 4/6
TTITLE2=Au Privave No. 1, 5/6
TTITLE3=Au Privave No. 1, original
TTITLE4=Au Privave No. 2, 1/2
TTITLE5=Au Privave No. 2, 4/6
TTITLE6=Au Privave No. 2, 5/6
TTITLE7=Au Privave No. 2, original
TTITLE8=K.C. Blues, 1/2
TTITLE9=K.C. Blues, 4/6
TTITLE10=K.C. Blues, 5/6
TTITLE11=K.C. Blues, original
TTITLE12=Mohawk No. 1, 1/2
TTITLE13=Mohawk No. 1, 4/6
TTITLE14=Mohawk No. 1, 5/6
TTITLE15=Mohawk No. 1, original
TTITLE16=Mohawk No. 2, 1/2
TTITLE17=Mohawk No. 2, 4/6
TTITLE18=Mohawk No. 2, 5/6
TTITLE19=Mohawk No. 2, original
TTITLE20=Now's the Time (No. 1), 1/2
TTITLE21=Now's the Time (No. 1), 4/6
TTITLE22=Now's the Time (No. 1), 5/6
TTITLE23=Now's the Time (No. 1), original
EXTD=
EXTT0=
EXTT1=
EXTT2=
EXTT3=
EXTT4=
EXTT5=
EXTT6=
EXTT7=
EXTT8=
EXTT9=
EXTT10=
EXTT11=
EXTT12=
EXTT13=
EXTT14=
EXTT15=
EXTT16=
EXTT17=
EXTT18=
EXTT19=
EXTT20=
EXTT21=
EXTT22=
EXTT23=
PLAYORDER=
